<svg width="89" height="114" viewBox="0 0 89 114" fill="none" xmlns="http://www.w3.org/2000/svg">
<g clip-path="url(#clip0_1_98)">
<path d="M76.0941 16.8075C67.684 5.96777 56.4631 0 44.5 0C32.5369 0 21.316 5.96777 12.9034 16.8075C4.58365 27.5295 0 41.7618 0 56.8844C0 66.9193 2.06866 76.7811 5.98031 85.4068C9.80921 93.8444 15.3031 100.926 21.8701 105.888C28.6929 111.043 36.5187 113.769 44.5 113.769C52.4813 113.769 60.3046 111.043 67.1299 105.888C73.6969 100.926 79.1908 93.8444 83.0172 85.4068C86.9313 76.7811 89 66.9193 89 56.8844C89 41.7618 84.4164 27.5295 76.0941 16.8075ZM23.7532 103.393C19.2197 99.9651 15.2228 95.4442 11.9882 90.1133C21.3486 87.7463 30.9421 86.3922 40.5934 86.0688L28.4322 106.424C26.8274 105.547 25.2652 104.534 23.7532 103.393ZM43.4218 86.2242L43.0532 110.607C38.8206 110.416 34.6432 109.383 30.6788 107.555L43.4218 86.2242V86.0863L43.2964 86.0086C43.339 86.0061 43.3842 86.0061 43.4268 86.0061V86.0863L43.4845 86.1214L43.4218 86.2242ZM45.5607 110.622L45.9318 86.2267L45.8691 86.1239L45.9318 86.0863V86.0011C45.9819 85.9986 46.027 85.9986 46.0747 86.0011L45.9318 86.0863V86.2267L58.602 107.425C54.4321 109.388 50.0265 110.476 45.5607 110.622ZM65.2468 103.393C63.82 104.471 62.3481 105.434 60.8386 106.274L48.7477 86.0462C58.3312 86.307 67.8621 87.5858 77.1623 89.8626C73.9025 95.3013 69.853 99.9125 65.2468 103.393ZM80.1712 84.1155C79.8126 84.9078 79.4365 85.6876 79.0454 86.4524C68.3009 83.7418 57.2429 82.3251 46.1424 82.2399C49.7807 78.2806 51.2025 75.3769 50.8238 72.8619C50.3875 69.9583 47.7748 68.6594 45.4729 67.5135C43.7829 66.6735 42.1881 65.8787 41.8947 64.7578C41.6741 63.9228 43.4669 62.0447 44.5351 60.9214C46.2953 59.0734 47.9578 57.3307 47.2783 55.2846C46.6715 53.4642 44.5777 52.9126 43.0557 52.6543C42.0301 52.4838 41.0623 53.1733 40.8893 54.1964C40.7162 55.2219 41.4058 56.1923 42.4313 56.3653C42.8501 56.4355 43.156 56.5083 43.3792 56.576C42.988 57.095 42.3085 57.8071 41.812 58.3262C39.8938 60.3397 37.5042 62.8471 38.2564 65.7107C38.9836 68.4839 41.5412 69.7577 43.7954 70.8811C45.4227 71.691 46.9598 72.4557 47.1053 73.4236C47.2457 74.3489 46.5988 76.726 40.8065 82.3026C30.4356 82.621 20.1299 84.1029 10.09 86.7182C9.65124 85.8682 9.22998 84.9981 8.82879 84.1155C5.09768 75.8935 3.12681 66.4754 3.12681 56.8844C3.12681 27.2411 21.6871 3.12681 44.5 3.12681C67.3129 3.12681 85.8732 27.2411 85.8732 56.8844C85.8732 66.4754 83.8998 75.8935 80.1712 84.1155Z" fill="#C95A20"/>
<path d="M50.1917 51.8371C49.6978 51.9524 49.3016 51.4259 49.5548 50.9846C52.0598 46.6015 61.7186 31.1981 72.1571 34.182C72.3903 34.2472 72.5533 34.4553 72.5684 34.6986C72.6912 36.8073 72.0493 46.6868 50.1917 51.8371Z" fill="#C95A20"/>
<path d="M38.8078 51.4409C16.9502 46.2905 16.3083 36.4111 16.4312 34.2998C16.4437 34.0591 16.6092 33.851 16.8424 33.7858C27.2785 30.8019 36.9372 46.2053 39.4447 50.5883C39.6954 51.0296 39.3018 51.5562 38.8078 51.4409Z" fill="#C95A20"/>
<path d="M45.1517 47.5042C44.9536 47.9706 44.2966 47.9756 44.0885 47.5142C34.9538 27.0107 42.4135 20.5138 44.1712 19.3278C44.3743 19.1924 44.6426 19.1974 44.8357 19.3428C53.5291 25.8422 47.1225 42.8553 45.1517 47.5042Z" fill="#C95A20"/>
<path d="M43.4844 86.1214L43.4218 86.2242L43.4243 86.0863L43.4844 86.1214Z" fill="#C95A20"/>
<path d="M45.9317 86.0863V86.2267L45.869 86.1239L45.9317 86.0863Z" fill="#C95A20"/>
<path d="M43.4844 86.1214L43.4218 86.2242L43.4243 86.0863L43.4844 86.1214Z" fill="#C95A20"/>
<path d="M45.9317 86.0863V86.2267L45.869 86.1239L45.9317 86.0863Z" fill="#C95A20"/>
</g>
<defs>
<clipPath id="clip0_1_98">
<rect width="89" height="113.769" fill="white"/>
</clipPath>
</defs>
</svg>
