<?xml version="1.0" encoding="UTF-8" standalone="no"?>
<svg xmlns="http://www.w3.org/2000/svg" viewBox="26 24 121 118" width="60" height="59">
   <g style="fill:#8a1438">
      <path
         d="M 122.10547,50.730469 H 140.07812 V 52.359375 H 134.49609 V 85.753906 C 134.49609,95.359375 132.80859,105.58203 128.70312,112.22266 L 125.3125,107.58594 C 128.68359,99.808594 127.70703,90.050781 127.77344,85.753906 V 52.359375 H 122.10547 Z M 122.10547,50.730469" />
      <path
         d="M 93.628906,55.03125 H 94.324219 C 96.191406,73.71875 100.05859,89.8125 113.21875,108.21875 121.40625,119.67188 132.41016,135.96875 132.41016,135.96875 H 143.84766 C 143.84766,135.96875 127.32031,115.05859 120.98047,105.58203 106.01172,83.214844 100.85938,65.140625 100.01953,28.332031 V 27.089844 H 90.398438 V 28.332031 C 90.703125,58.816406 87.246094,72.09375 82.609375,83.457031 79.410156,91.289063 73.101563,101.29688 65.421875,109.04297 65.429688,110.41016 66.101563,113.46875 66.691406,115.46484 72.007813,108.54688 80.855469,104.73047 88.621094,104.73047 94.273438,104.73047 99.464844,106.19141 104.10547,110.41406 105.94922,112.09375 109.13672,115.88281 114.44531,124.65234 108.76172,130.62891 100.81641,134.625 91.351563,134.625 78.105469,134.625 72.066406,129.69922 67.5625,123.29688 63.449219,117.44141 61.328125,108.73828 61.328125,95.234375 V 52.359375 H 66.421875 V 50.726563 H 29.613281 V 52.359375 H 34.890625 V 83.730469 C 34.890625,101.55078 38.742188,111.47656 44.992188,120.08594 51.367188,128.86719 64.652344,138.70312 89.394531,138.70312 102.46484,138.70312 111.45703,132.99219 116.42969,127.96484 117.75781,130.23828 119.41797,133.12109 120.97266,135.96875 H 129.58594 C 129.58594,135.96875 123.83594,127.28906 115.25391,114.91797 106.125,101.76172 97.332031,100.04297 88.632813,100.04297 84.023438,100.04297 78.585938,102.1875 75.449219,104.41016 L 75.1875,104.14844 C 80.90625,97.609375 84.574219,89.816406 86.863281,83.980469 89.277344,77.824219 93.175781,64.878906 93.628906,55.03125" />
   </g>
</svg>